<?xml version="1.0" encoding="UTF-8" standalone="no"?>
<svg
   xmlns:dc="http://purl.org/dc/elements/1.1/"
   xmlns:cc="http://creativecommons.org/ns#"
   xmlns:rdf="http://www.w3.org/1999/02/22-rdf-syntax-ns#"
   xmlns:svg="http://www.w3.org/2000/svg"
   xmlns="http://www.w3.org/2000/svg"
   xmlns:sodipodi="http://sodipodi.sourceforge.net/DTD/sodipodi-0.dtd"
   xmlns:inkscape="http://www.inkscape.org/namespaces/inkscape"
   width="210mm"
   height="297mm"
   viewBox="0 0 210 297"
   version="1.1"
   id="svg8"
   inkscape:version="1.0.2 (e86c870879, 2021-01-15)"
   sodipodi:docname="icons.svg">
  <defs
     id="defs2">
    <inkscape:path-effect
       effect="simplify"
       id="path-effect912"
       is_visible="true"
       lpeversion="1"
       steps="1"
       threshold="0.000408163"
       smooth_angles="360"
       helper_size="0"
       simplify_individual_paths="false"
       simplify_just_coalesce="false" />
  </defs>
  <sodipodi:namedview
     id="base"
     pagecolor="#ffffff"
     bordercolor="#666666"
     borderopacity="1.0"
     inkscape:pageopacity="0.0"
     inkscape:pageshadow="2"
     inkscape:zoom="0.98994949"
     inkscape:cx="377.31356"
     inkscape:cy="729.50889"
     inkscape:document-units="mm"
     inkscape:current-layer="layer2"
     inkscape:document-rotation="0"
     showgrid="false"
     showguides="true"
     inkscape:guide-bbox="true"
     inkscape:window-width="1920"
     inkscape:window-height="1017"
     inkscape:window-x="1912"
     inkscape:window-y="-8"
     inkscape:window-maximized="1"
     inkscape:snap-others="false"
     inkscape:snap-nodes="false" />
  <metadata
     id="metadata5">
    <rdf:RDF>
      <cc:Work
         rdf:about="">
        <dc:format>image/svg+xml</dc:format>
        <dc:type
           rdf:resource="http://purl.org/dc/dcmitype/StillImage" />
        <dc:title></dc:title>
      </cc:Work>
    </rdf:RDF>
  </metadata>
  <g
     inkscape:label="Layer 1"
     inkscape:groupmode="layer"
     id="layer1"
     sodipodi:insensitive="true">
    <rect
       style="fill:#9bff00;fill-opacity:1;stroke-width:1.32292;stroke-linejoin:round"
       id="rect833"
       width="487.58929"
       height="458.8631"
       x="-127"
       y="-73.327377" />
  </g>
  <g
     inkscape:groupmode="layer"
     id="layer2"
     inkscape:label="Layer 2">
    <circle
       style="fill:#ffffff;fill-opacity:1;stroke-width:1.32292;stroke-linejoin:round"
       id="path836"
       cx="-55.184525"
       cy="-6.8035693"
       r="43.089287"
       inkscape:export-xdpi="9.4315786"
       inkscape:export-ydpi="9.4315786" />
    <g
       id="g889"
       inkscape:export-xdpi="9.4315786"
       inkscape:export-ydpi="9.4315786">
      <circle
         style="fill:#ffffff;fill-opacity:0;stroke-width:1.32292;stroke-linejoin:round"
         id="circle838"
         cx="39.998604"
         cy="-5.0022559"
         r="43.089287"
         inkscape:export-xdpi="96"
         inkscape:export-ydpi="96" />
      <g
         id="g883"
         inkscape:export-xdpi="96"
         inkscape:export-ydpi="96">
        <path
           id="path840"
           style="fill:#0a0a0a;fill-opacity:1;stroke-width:1.32292;stroke-linejoin:round"
           d="M 39.979472,-18.575093 A 12.093946,12.093946 0 0 0 27.929562,-6.4812581 12.093946,12.093946 0 0 0 40.023396,5.6125773 12.093946,12.093946 0 0 0 52.117749,-6.4812581 12.093946,12.093946 0 0 0 51.070266,-11.404472 5.2706484,5.2706484 0 0 1 46.012179,-7.6160724 5.2706484,5.2706484 0 0 1 40.7417,-12.886552 a 5.2706484,5.2706484 0 0 1 3.45095,-4.946985 12.093946,12.093946 0 0 0 -4.169254,-0.741556 12.093946,12.093946 0 0 0 -0.04392,0 z" />
        <path
           id="path842"
           style="fill:none;fill-opacity:1;stroke:#0a0a0a;stroke-width:3.96875;stroke-linejoin:miter;stroke-miterlimit:4;stroke-dasharray:none;stroke-opacity:1"
           d="M 71.607905,-3.956503 C 57.57626,10.555039 45.361651,10.5286 40.147079,10.5286 c -5.268407,0 -16.761,0.880273 -31.460823,-14.485103 14.165285,-14.566261 26.246253,-14.485101 31.460823,-14.485101 5.080936,0 17.429175,-0.07847 31.460826,14.485101 z"
           sodipodi:nodetypes="cscsc" />
      </g>
    </g>
    <g
       id="g904"
       inkscape:export-xdpi="9.4315796"
       inkscape:export-ydpi="9.4315796"
       transform="translate(26.458333,-139.09524)">
      <circle
         style="fill:none;fill-opacity:1;stroke-width:1.32292;stroke-linejoin:round"
         id="circle864"
         cx="108.64506"
         cy="135.11464"
         r="43.089287"
         inkscape:export-xdpi="96"
         inkscape:export-ydpi="96" />
      <g
         id="g898"
         transform="translate(1.0690781,3.7417734)">
        <rect
           style="fill:#ffffff;fill-opacity:0;stroke:#0a0a0a;stroke-width:3.969;stroke-linejoin:miter;stroke-miterlimit:4;stroke-dasharray:none;stroke-opacity:1"
           id="rect891"
           width="30.735994"
           height="49.731884"
           x="93.277061"
           y="103.51491" />
        <rect
           style="fill:#0a0a0a;fill-opacity:1;stroke:#0a0a0a;stroke-width:3.77809;stroke-linejoin:miter;stroke-miterlimit:4;stroke-dasharray:none;stroke-opacity:1"
           id="rect893"
           width="27.85379"
           height="49.731888"
           x="109.63725"
           y="163.60309"
           transform="matrix(0.90197174,-0.43179507,0,1,0,0)" />
      </g>
    </g>
    <g
       id="g940"
       inkscape:export-xdpi="9.4315786"
       inkscape:export-ydpi="9.4315786">
      <circle
         style="fill:none;fill-opacity:1;stroke-width:1.32292;stroke-linejoin:round"
         id="circle906"
         cx="109.97311"
         cy="180.86441"
         r="43.089287"
         inkscape:export-xdpi="9.4315786"
         inkscape:export-ydpi="9.4315786" />
      <path
         id="path908"
         style="fill:#0a0a0a;fill-opacity:1;stroke:none;stroke-width:15.0009;stroke-linejoin:miter;stroke-miterlimit:4;stroke-dasharray:none;stroke-opacity:1"
         inkscape:transform-center-x="1.212183e-06"
         inkscape:transform-center-y="-3.4493587"
         d="M 449.39844 567.3125 C 411.95859 614.20415 415.20302 627.7692 403.76367 640.93945 C 396.05374 649.8159 376.77119 651.93861 356.84961 665.87891 C 321.98454 690.27598 342.99568 761.94128 365.68555 734.64844 C 342.94945 686.55229 438.38495 671.06318 423.88672 732.67383 C 455.35242 741.99414 451.05967 696.03006 447.15625 680.67188 C 448.77427 649.49992 484.49181 624.88215 492.95508 610.13281 C 493.33711 593.36316 464.12537 572.97351 449.39844 567.3125 z M 395.98047 721.62891 L 350.81836 799.85156 L 441.14062 799.85156 L 395.98047 721.62891 z "
         transform="scale(0.26458333)" />
    </g>
  </g>
</svg>
